<svg width="40px" height="40px" viewBox="0 0 40 40" version="1.1"><title>community-icon</title><g stroke="none" stroke-width="1" fill="none" fill-rule="evenodd"><g transform="translate(-371.000000, -1122.000000)" fill="#F64A00"><g transform="translate(371.000000, 82.000000)"><g transform="translate(0.000000, 1002.000000)"><g transform="translate(0.000000, 38.000000)"><path d="M32,19.3333534 C32.0045503,21.0931743 31.5933878,22.829194 30.7999639,24.400012 C28.8812458,28.2391097 24.9585165,30.665008 20.6666466,30.6666688 C18.9068257,30.6712571 17.170806,30.2600946 15.599988,29.4666707 L8,32 L10.5333293,24.400012 C9.73990543,22.829194 9.32874289,21.0931743 9.33333122,19.3333534 C9.33499196,15.0414835 11.7608903,11.1187542 15.599988,9.20003608 C17.170806,8.40661219 18.9068257,7.99544966 20.6666466,8 L21.3333122,8 C27.0877157,8.31750374 31.6824963,12.9122843 32,18.6666878 L32,19.3333534 L32,19.3333534 Z"></path></g></g></g></g></g></svg>